<?xml version="1.0" encoding="utf-8"?>
<!-- Generator: Adobe Illustrator 20.0.0, SVG Export Plug-In . SVG Version: 6.00 Build 0)  -->
<svg version="1.1" id="Layer_1" xmlns="http://www.w3.org/2000/svg" xmlns:xlink="http://www.w3.org/1999/xlink" x="0px" y="0px"
	 viewBox="0 0 56.2 90" style="enable-background:new 0 0 56.2 90;" xml:space="preserve">
<style type="text/css">
	.st0{fill:#C42B47;}
</style>
<path class="st0" d="M44.7,32.1C44,31.5,43,32,43.1,32.8c0.6,10.2-3.2,12.8-5.4,7c-0.9-2.3-1.4-6.4-1.4-11.3
	c0-8.2-2.4-16.6-7.6-23.5c-1.4-1.8-3-3.4-4.8-4.9c-0.7-0.5-1.6,0-1.6,0.8c0.4,5.5,0,21.5-13.9,40.5c-12.7,17.6-7.7,31.2-6,34.8
	c3.3,7,8,11.1,12.5,13.6c0.9,0.5,1.8-0.5,1.3-1.4c-2.9-4.5-5.7-12.2-1.3-22.1C22.2,50,26.7,41.5,26.7,41.5s2.4,9.9,8.8,18.8
	c6.2,8.5,9.6,19.2,4.1,28.1c-0.5,0.8,0.4,1.8,1.3,1.4c6.8-3.5,14.4-10.4,15.2-24.3c0-0.6,0.1-1.2,0.1-1.8v-1.2
	c-0.1-3.9-0.8-8.8-2.6-14.6C50.6,38.4,46.8,34,44.7,32.1z"/>
</svg>
