<?xml version="1.0" encoding="utf-8"?>
<!-- Generator: Adobe Illustrator 20.0.0, SVG Export Plug-In . SVG Version: 6.00 Build 0)  -->
<svg version="1.1" id="Layer_1" xmlns="http://www.w3.org/2000/svg" xmlns:xlink="http://www.w3.org/1999/xlink" x="0px" y="0px"
	 viewBox="0 0 78.6 90" style="enable-background:new 0 0 78.6 90;" xml:space="preserve">
<style type="text/css">
	.st0{fill:#C42B47;}
</style>
<path class="st0" d="M15,64v7.5l2.6,2l3.1-2.2V60l7.5-3.8v8.2l7.5-4.6v7.9l-9.5,5.5v4.2l3.1,2l6.4-3.8v11.9l3.7,2.6l3.7-2.6V75.5
	l6.4,3.8l3.1-1.6v-4.6L43,67.7v-7.9l7.5,4.2v-7.7l7.5,4v11.3l2.9,2l2.7-2v-7.5l10.2,5.7l4.7-2v-4.6l-9.9-6l6.2-3.5v-4l-3.5-2.2
	L61.5,53l-7.1-3.7l7-4l-6.6-4.2l6.8-4.4l10.1,5.9l3.5-1.8v-4.2l-6.6-3.7l10.2-5.8v-4.4l-4-2.4l-11,5.9v-7.9l-2.9-1.6L58,18.3v12.3
	l-7.5,3.8V26L43,30.2v-7.9l11.3-5.7v-3.8l-4-2.2L43,14.5V2.6L39.3,0l-3.7,2.6v11.9l-6.4-3.8l-3.1,2v4.2l9.5,5.5v7.9l-7.5-4v8.2l-7-4
	l0.2-11.5l-3.7-2.2L15,18.8v7.5L4.4,20.5l-4.4,2v4.8l10.4,5.7l-6.8,3.8V41l3.8,1.8l9.7-5.7L24,41l-6.8,4.2l7,4h0.2l-6.8,4l-9.9-5.9
	l-4,2.2V54l7,3.3L0,63.3V68l4.6,1.8L15,64z M36.2,39.3h6.6l3.1,5.9L43,50.7h-6.6l-3.5-5.5L36.2,39.3z"/>
</svg>
