<?xml version="1.0" encoding="utf-8"?>
<!-- Generator: Adobe Illustrator 20.0.0, SVG Export Plug-In . SVG Version: 6.00 Build 0)  -->
<svg version="1.1" id="Layer_1" xmlns="http://www.w3.org/2000/svg" xmlns:xlink="http://www.w3.org/1999/xlink" x="0px" y="0px"
	 viewBox="0 0 88.8 90" style="enable-background:new 0 0 88.8 90;" xml:space="preserve">
<style type="text/css">
	.st0{fill:#C42B47;}
</style>
<g>
	<path class="st0" d="M5.3,19.7c3.3,7.6,8.8,15.1,16.5,18.4c0.9,0.4,1.9,0.6,2.9,0.9c2.1-3.1,4.4-5.6,7.2-7.6
		c2.4-1.7,4.9-3.1,7.4-4.2c-0.7-0.5-1.5-1-2.3-1.4c-3.2-1.7-6.7-3.2-10.1-4.8c3.2,0.9,6.9,1.2,9.9,2.3c1.9,0.7,3.7,1.7,5.3,2.8
		c4.9-1.7,10-2.5,15.1-3.1c-4.1-6.9-12.9-12.4-19.6-14.9c-6.9-2.6-14.8-2.9-22.5-3.7C10.4,4,5.3,2.2,1.5,0.1C1.4,0.1,1.2,0,1.1,0
		H0.9C0.4,0.1,0.1,0.4,0,0.9v0.3c0,0.1,0,0.1,0,0.2C1.9,7.3,2.8,14,5.3,19.7z"/>
	<path class="st0" d="M87.5,18.6c-0.2,0-0.4,0-0.7,0.2c-8.7,4.7-18.7,5.3-28.5,6.4c-4.8,0.6-9.5,1.2-14,2.6c-1,0.3-1.9,0.6-2.9,1
		c-2.8,1.1-5.6,2.5-8.2,4.4c-2.4,1.8-4.4,3.9-6.1,6.2c-2.7,3.7-4.5,8-6.1,12.4c-2.8,8.1-4.1,16.6-3.8,25.2c0.1,3.5,0.2,7.1,1,10.4
		c0.2,0.7,0.4,1.7,1,2.2c0.8,0.7,2.1,0,1.8-1.1c-2.2-7.5-0.8-16.2,2.2-23.3c3.5-8.2,10.2-13.1,18.4-16c2.2-0.8,4.4-1.5,6.7-2.1
		c0,0,0.1,0,0.1,0c0.5,0,0.6,0.7,0.2,0.9c-2.7,1.2-5.3,2.4-7.8,3.7c-12.3,6.4-17.7,21.4-13.1,21.4c0.4,0,0.8-0.1,1.3-0.3
		c7.1-3,15.6-3,23.5-4.4c2.8-0.5,5.4-1.2,8-2.2C70.5,62,77.6,53.8,81.9,44c3.2-7.3,4.4-16,6.8-23.6C89,19.4,88.3,18.6,87.5,18.6z"/>
</g>
</svg>
