<?xml version="1.0" encoding="utf-8"?>
<!-- Generator: Adobe Illustrator 20.0.0, SVG Export Plug-In . SVG Version: 6.00 Build 0)  -->
<svg version="1.1" id="Layer_1" xmlns="http://www.w3.org/2000/svg" xmlns:xlink="http://www.w3.org/1999/xlink" x="0px" y="0px"
	 viewBox="0 0 78.1 90" style="enable-background:new 0 0 78.1 90;" xml:space="preserve">
<style type="text/css">
	.st0{fill:#C42B47;}
</style>
<g>
	<path class="st0" d="M78.1,32.9v-2.4c0-1.7-1.4-3.1-3.1-3.1H53.8V10.7h0.1c1.9,0,3.4-1.5,3.4-3.4V3.4c0-1.9-1.5-3.4-3.4-3.4H24.3
		c-1.9,0-3.4,1.5-3.4,3.4v3.9c0,1.9,1.5,3.4,3.4,3.4h0.1v16.8H3.1c-1.7,0-3.1,1.4-3.1,3.1v2.4c0,5.6,4.6,10.2,10.2,10.2V79
		C4.6,79,0,83.6,0,89.2V90h78.1v-0.8c0-5.6-4.5-10.2-10.2-10.2V43.2C73.6,43.1,78.1,38.6,78.1,32.9L78.1,32.9z M56.2,74.1H46.1
		c2.1-1.4,2.9-3.5,2.9-5.6c0-4-4.3-4.2-5-10.7c-0.1-0.6-0.9-0.9-1.2-0.4c-1.2,1.6-2.6,4.6-1.5,8.7c0,0-5.5-2-1.7-7.9
		c1.9-2.8,0.1-8.4-0.5-8.4c-0.6,0-0.1,3.9-3.3,6.9c-7.1,6.5-6.4,14.3-2.3,17.4H21.9v-31h34.4V74.1z M56.2,74.1"/>
</g>
</svg>
