<?xml version="1.0" encoding="utf-8"?>
<!-- Generator: Adobe Illustrator 20.0.0, SVG Export Plug-In . SVG Version: 6.00 Build 0)  -->
<svg version="1.1" id="Layer_1" xmlns="http://www.w3.org/2000/svg" xmlns:xlink="http://www.w3.org/1999/xlink" x="0px" y="0px"
	 viewBox="0 0 14.2 16" style="enable-background:new 0 0 14.2 16;" xml:space="preserve">
<style type="text/css">
	.st0{fill:#3C8AB8;}
</style>
<path class="st0" d="M12.4,0H1.8C0.8,0,0,0.8,0,1.8v12.4c0,1,0.8,1.8,1.8,1.8h10.7c1,0,1.8-0.8,1.8-1.8V1.8C14.2,0.8,13.4,0,12.4,0z
	 M12.4,14.2H1.8V1.8h10.7V14.2z M8,9.8H3.6v0.9H8V9.8z M10.7,6.2H7.1v0.9h3.6V6.2z M7.1,5.3h3.6V3.6H7.1V5.3z M6.2,3.6H3.6v3.6h2.7
	V3.6z M5.3,8H3.6v0.9h1.8V8z M6.2,8.9h4.4V8H6.2V8.9z M10.7,11.6H3.6v0.9h7.1V11.6z M8.9,10.7h1.8V9.8H8.9V10.7z"/>
</svg>
