<?xml version="1.0" encoding="utf-8"?>
<!-- Generator: Adobe Illustrator 20.0.0, SVG Export Plug-In . SVG Version: 6.00 Build 0)  -->
<svg version="1.1" id="Layer_1" xmlns="http://www.w3.org/2000/svg" xmlns:xlink="http://www.w3.org/1999/xlink" x="0px" y="0px"
	 viewBox="0 0 19.5 16" style="enable-background:new 0 0 19.5 16;" xml:space="preserve">
<style type="text/css">
	.st0{fill:#CCCCCC;}
</style>
<path class="st0" d="M17.7,0h-4c-1,0-2.3,0.6-3,1.2L4,8c-0.7,0.7-0.7,1.8,0,2.4l5,5c0.7,0.7,1.8,0.7,2.4,0l6.8-6.8
	c0.7-0.7,1.2-2,1.2-3v-4C19.5,0.8,18.7,0,17.7,0 M15.4,5.8c-1,0-1.7-0.8-1.7-1.7c0-1,0.8-1.7,1.7-1.7c1,0,1.7,0.8,1.7,1.7
	C17.2,5,16.4,5.8,15.4,5.8 M1.4,9.6l6.2,6.2c-0.7,0.3-1.5,0.2-2-0.3l-5-5c-0.7-0.7-0.7-1.8,0-2.4l6.8-6.8C8,0.6,9.3,0,10.2,0
	L1.4,8.8C1.2,9,1.2,9.4,1.4,9.6"/>
</svg>
